<svg xmlns="http://www.w3.org/2000/svg" width="16" height="16" viewBox="0 0 16 16" fill="none">
<path d="M12.2489 2.7344C11.123 1.62388 9.59595 1 8.00367 1C6.4114 1 4.88434 1.62388 3.75844 2.7344C2.63253 3.84492 2 5.3511 2 6.92161C2 8.49212 2.63253 9.99831 3.75844 11.1088L7.48717 14.7936C7.55295 14.859 7.6312 14.9109 7.71742 14.9463C7.80364 14.9818 7.89612 15 7.98952 15C8.08293 15 8.17541 14.9818 8.26163 14.9463C8.34785 14.9109 8.4261 14.859 8.49188 14.7936L12.2489 11.0739C13.3701 9.96803 14 8.46813 14 6.90417C14 5.3402 13.3701 3.8403 12.2489 2.7344ZM11.2371 10.076L8.00367 13.2792L4.77022 10.076C4.13141 9.44533 3.69651 8.64203 3.52049 7.76763C3.34446 6.89323 3.43522 5.98699 3.78129 5.16346C4.12736 4.33993 4.7132 3.63608 5.46476 3.14089C6.21632 2.6457 7.09985 2.38141 8.00367 2.38141C8.9075 2.38141 9.79103 2.6457 10.5426 3.14089C11.2941 3.63608 11.88 4.33993 12.2261 5.16346C12.5721 5.98699 12.6629 6.89323 12.4869 7.76763C12.3108 8.64203 11.8759 9.44533 11.2371 10.076Z" fill="#718096"/>
<circle cx="8" cy="7" r="1" fill="#718096"/>
</svg>